<?xml version="1.0" ?><svg data-name="Layer 1" id="Layer_1" viewBox="0 0 64 64" xmlns="http://www.w3.org/2000/svg"><defs><style>
      .cls-1 {
        fill: #aad98f;
      }
    </style></defs><path class="cls-1" d="M47.59,31.17c1.21,0,2.39-.31,3.44-.92,3.27-1.89,6.65-11.35,7.03-12.42,.1-.27,.07-.58-.08-.83-.15-.25-.39-.43-.68-.48-1.12-.21-11.01-2.01-14.27-.12-2.24,1.29-3.48,3.7-3.51,6.26-.95-.77-2.03-1.39-3.19-1.84,2.2-1.31,3.67-3.59,3.67-6.17,0-3.77-6.5-11.44-7.24-12.3-.38-.44-1.14-.44-1.52,0-.74,.86-7.24,8.53-7.24,12.3,0,2.59,1.47,4.86,3.67,6.17-1.16,.45-2.23,1.07-3.19,1.84-.03-2.56-1.27-4.97-3.51-6.26-3.27-1.89-13.16-.09-14.27,.12-.29,.05-.53,.23-.68,.48-.15,.25-.17,.56-.08,.83,.38,1.07,3.76,10.54,7.03,12.42,1.06,.61,2.23,.92,3.44,.92,.75,0,1.52-.12,2.28-.36,.51-.16,1-.38,1.46-.64-.09,.6-.15,1.21-.15,1.83s.06,1.23,.15,1.83c-.46-.26-.95-.48-1.46-.64-1.97-.63-4-.44-5.72,.56-3.27,1.89-6.65,11.35-7.03,12.42-.1,.27-.07,.58,.08,.83,.15,.25,.39,.43,.68,.48,.74,.14,5.33,.98,9.29,.98,2.02,0,3.88-.22,4.98-.85,2.24-1.29,3.48-3.7,3.51-6.26,.95,.77,2.03,1.39,3.19,1.84-2.2,1.31-3.67,3.59-3.67,6.17,0,3.77,6.5,11.44,7.24,12.3,.19,.22,.47,.35,.76,.35s.57-.13,.76-.35c.74-.86,7.24-8.53,7.24-12.3,0-2.59-1.47-4.86-3.67-6.17,1.16-.45,2.23-1.07,3.19-1.84,.03,2.56,1.27,4.97,3.51,6.26,1.1,.64,2.96,.85,4.98,.85,3.96,0,8.55-.84,9.29-.98,.29-.05,.53-.23,.68-.48,.15-.25,.17-.56,.08-.83-.38-1.07-3.76-10.54-7.03-12.42-1.72-.99-3.75-1.19-5.72-.56-.51,.16-1,.38-1.46,.64,.09-.6,.15-1.21,.15-1.83s-.06-1.23-.15-1.83c.46,.26,.95,.48,1.46,.64,.76,.24,1.52,.36,2.28,.36Zm-27.08,10.93c-.91,.52-3.48,.18-5.47-.3,.57-1.97,1.56-4.37,2.47-4.89h0c.69-.4,1.5-.51,2.28-.3,.77,.21,1.42,.7,1.82,1.4,.83,1.43,.33,3.27-1.1,4.1Zm1.1-16.1c-.4,.69-1.05,1.19-1.82,1.4-.77,.21-1.58,.1-2.28-.3-.91-.52-1.9-2.92-2.47-4.89,1.99-.49,4.56-.83,5.47-.3h0c1.43,.83,1.92,2.67,1.1,4.1Zm10.39-13.59c1.42,1.48,3,3.54,3,4.59,0,1.65-1.35,3-3,3s-3-1.35-3-3c0-1.05,1.58-3.11,3-4.59Zm0,39.17c-1.42-1.48-3-3.54-3-4.59,0-1.65,1.35-3,3-3s3,1.35,3,3c0,1.05-1.58,3.11-3,4.59Zm0-15.59c-2.21,0-4-1.79-4-4s1.79-4,4-4,4,1.79,4,4-1.79,4-4,4Zm12.21,.6c.26-.07,.52-.1,.78-.1,.52,0,1.03,.14,1.5,.4,.91,.52,1.9,2.92,2.47,4.89-1.99,.49-4.56,.83-5.47,.3h0c-1.43-.83-1.92-2.67-1.1-4.1,.4-.69,1.05-1.19,1.82-1.4Zm0-9.2c-.77-.21-1.42-.7-1.82-1.4-.83-1.43-.33-3.27,1.1-4.1,.32-.19,.85-.26,1.5-.26,1.17,0,2.69,.25,3.98,.57-.57,1.97-1.56,4.37-2.47,4.89h0c-.69,.4-1.5,.51-2.28,.3Z"/></svg>